<svg width="1439" height="1024" viewBox="0 0 1439 1024" fill="none" xmlns="http://www.w3.org/2000/svg">
<g clip-path="url(#clip0_763_81)">
<rect width="1440" height="1024" fill="#082832"/>
<mask id="mask0_763_81" style="mask-type:alpha" maskUnits="userSpaceOnUse" x="-330" y="-238" width="1956" height="1440">
<path d="M758.16 303.828C758.16 451.088 660.795 570.466 540.69 570.466C420.584 570.466 -329.822 53.9684 -329.822 -93.2915C-329.822 -240.551 748.366 -37.8208 868.471 -37.8208C988.577 -37.8208 758.16 156.568 758.16 303.828Z" fill="url(#paint0_linear_763_81)"/>
<path d="M842.625 934.852C842.625 1082.11 745.26 1201.49 625.155 1201.49C505.049 1201.49 -164.042 1167.16 -164.042 1019.9C-164.042 872.645 -114.584 523.82 5.52197 523.82C125.628 523.82 842.625 787.593 842.625 934.852Z" fill="url(#paint1_radial_763_81)"/>
<path d="M1089.32 304.232C1413.39 596.921 1263.69 449.833 1542.03 442.422C1585.7 450.834 1659.82 451.234 1607.01 385.542C1541 303.428 1562.27 245.429 1479.77 155.965C1397.27 66.5014 1347.02 -24.3924 1222.47 -166.682C1097.91 -308.973 1088.33 -191.679 947.908 -202.798C807.488 -213.917 871.534 -196.259 677.79 10.1976C484.046 216.655 765.255 11.5435 1089.32 304.232Z" fill="#D9D9D9"/>
<path d="M783.374 764.613C349.694 815.672 558.97 799.913 381.212 1014.23C346.122 1041.55 296.997 1097.06 381.212 1100.59C486.48 1105 516.107 1159.21 637.764 1156.06C759.421 1152.91 860.907 1174.97 1050.01 1174.97C1239.12 1174.97 1157.17 1090.5 1258.03 992.169C1358.88 893.835 1303.41 930.395 1275.68 648.629C1247.94 366.863 1217.05 713.555 783.374 764.613Z" fill="#D9D9D9"/>
</mask>
<g mask="url(#mask0_763_81)">
<line x1="-32.2954" y1="609.547" x2="1479.28" y2="609.547" stroke="white" stroke-opacity="0.09" stroke-width="1.2607"/>
<line x1="-32.2954" y1="932.286" x2="1479.28" y2="932.286" stroke="white" stroke-opacity="0.09" stroke-width="1.2607"/>
<line x1="-32.2954" y1="286.811" x2="1479.28" y2="286.811" stroke="white" stroke-opacity="0.09" stroke-width="1.2607"/>
<line x1="-32.2954" y1="448.178" x2="1479.28" y2="448.178" stroke="white" stroke-opacity="0.09" stroke-width="1.2607"/>
<line x1="-32.2954" y1="770.917" x2="1479.28" y2="770.917" stroke="white" stroke-opacity="0.09" stroke-width="1.2607"/>
<line x1="-32.2954" y1="125.44" x2="1479.28" y2="125.44" stroke="white" stroke-opacity="0.09" stroke-width="1.2607"/>
<line x1="-32.2954" y1="528.864" x2="1479.28" y2="528.864" stroke="white" stroke-opacity="0.09" stroke-width="1.2607"/>
<line x1="-32.2954" y1="851.602" x2="1479.28" y2="851.602" stroke="white" stroke-opacity="0.09" stroke-width="1.2607"/>
<line x1="-32.2954" y1="206.126" x2="1479.28" y2="206.126" stroke="white" stroke-opacity="0.09" stroke-width="1.2607"/>
<line x1="-32.2954" y1="1012.97" x2="1479.28" y2="1012.97" stroke="white" stroke-opacity="0.09" stroke-width="1.2607"/>
<line x1="-32.2954" y1="367.493" x2="1479.28" y2="367.493" stroke="white" stroke-opacity="0.09" stroke-width="1.2607"/>
<line x1="-32.2954" y1="690.233" x2="1479.28" y2="690.233" stroke="white" stroke-opacity="0.09" stroke-width="1.2607"/>
<line x1="-32.2954" y1="44.7544" x2="1479.28" y2="44.7544" stroke="white" stroke-opacity="0.09" stroke-width="1.2607"/>
<line x1="14.9798" y1="-64.2949" x2="14.9798" y2="1103.11" stroke="white" stroke-opacity="0.09" stroke-width="1.2607"/>
<line x1="660.461" y1="-64.2949" x2="660.461" y2="1103.11" stroke="white" stroke-opacity="0.09" stroke-width="1.2607"/>
<line x1="337.72" y1="-64.2949" x2="337.72" y2="1103.11" stroke="white" stroke-opacity="0.09" stroke-width="1.2607"/>
<line x1="983.197" y1="-64.2949" x2="983.196" y2="1103.11" stroke="white" stroke-opacity="0.09" stroke-width="1.2607"/>
<line x1="1305.94" y1="-64.2949" x2="1305.94" y2="1103.11" stroke="white" stroke-opacity="0.09" stroke-width="1.2607"/>
<line x1="176.35" y1="-64.2949" x2="176.35" y2="1103.11" stroke="white" stroke-opacity="0.09" stroke-width="1.2607"/>
<line x1="821.826" y1="-64.2949" x2="821.826" y2="1103.11" stroke="white" stroke-opacity="0.09" stroke-width="1.2607"/>
<line x1="499.09" y1="-64.2949" x2="499.09" y2="1103.11" stroke="white" stroke-opacity="0.09" stroke-width="1.2607"/>
<line x1="1144.57" y1="-64.2949" x2="1144.57" y2="1103.11" stroke="white" stroke-opacity="0.09" stroke-width="1.2607"/>
<line x1="95.6671" y1="-64.2949" x2="95.6671" y2="1103.11" stroke="white" stroke-opacity="0.09" stroke-width="1.2607"/>
<line x1="741.144" y1="-64.2949" x2="741.143" y2="1103.11" stroke="white" stroke-opacity="0.09" stroke-width="1.2607"/>
<line x1="418.403" y1="-64.2949" x2="418.403" y2="1103.11" stroke="white" stroke-opacity="0.09" stroke-width="1.2607"/>
<line x1="1063.88" y1="-64.2949" x2="1063.88" y2="1103.11" stroke="white" stroke-opacity="0.09" stroke-width="1.2607"/>
<line x1="1386.62" y1="-64.2949" x2="1386.62" y2="1103.11" stroke="white" stroke-opacity="0.09" stroke-width="1.2607"/>
<line x1="257.037" y1="-64.2949" x2="257.037" y2="1103.11" stroke="white" stroke-opacity="0.09" stroke-width="1.2607"/>
<line x1="902.514" y1="-64.2949" x2="902.514" y2="1103.11" stroke="white" stroke-opacity="0.09" stroke-width="1.2607"/>
<line x1="579.773" y1="-64.2949" x2="579.773" y2="1103.11" stroke="white" stroke-opacity="0.09" stroke-width="1.2607"/>
<line x1="1225.25" y1="-64.2949" x2="1225.25" y2="1103.11" stroke="white" stroke-opacity="0.09" stroke-width="1.2607"/>
<g opacity="0.7">
<rect x="821.885" y="770.859" width="80.2262" height="80.2262" fill="#24613D" fill-opacity="0.36"/>
<rect x="418.462" y="770.859" width="80.2262" height="80.2262" fill="#24613D" fill-opacity="0.25"/>
<rect x="1145.08" y="206.982" width="80.2262" height="79.0801" fill="#24613D" fill-opacity="0.11"/>
<rect x="498.688" y="126.758" width="80.2262" height="79.0801" fill="#0DA932" fill-opacity="0.31"/>
<rect x="1063.71" y="287.209" width="80.2262" height="79.0801" fill="#24613D" fill-opacity="0.11"/>
<rect x="417.316" y="206.982" width="80.2262" height="79.0801" fill="#0DA932" fill-opacity="0.31"/>
<rect x="1063.71" y="206.982" width="80.2262" height="79.0801" fill="#24613D" fill-opacity="0.11"/>
<rect x="417.316" y="126.758" width="80.2262" height="79.0801" fill="#0DA932" fill-opacity="0.31"/>
<rect x="338.236" y="770.859" width="80.2262" height="80.2262" fill="#24613D" fill-opacity="0.25"/>
<rect x="338.236" y="851.086" width="80.2262" height="81.3723" fill="#24613D" fill-opacity="0.25"/>
<rect x="176.637" y="690.633" width="80.2262" height="80.2262" fill="#24613D" fill-opacity="0.25"/>
<rect x="983.484" y="45.3848" width="80.2262" height="80.2262" fill="#0FAE27" fill-opacity="0.61"/>
<rect x="903.258" y="-46.3027" width="80.2262" height="80.2262" fill="#0FAE27" fill-opacity="0.61"/>
<rect x="902.381" y="44.2383" width="80.2262" height="81.3723" fill="#0FAE27" fill-opacity="0.61"/>
<rect x="176.638" y="124.465" width="81.3723" height="82.5184" fill="#0D992F" fill-opacity="0.24"/>
<rect x="95.2652" y="44.2383" width="81.3723" height="80.2262" fill="#0D992F" fill-opacity="0.24"/>
<rect x="15.0391" y="45.3848" width="81.3723" height="80.2262" fill="#0D992F" fill-opacity="0.24"/>
<rect x="95.2652" y="124.465" width="81.3723" height="82.5184" fill="#0D992F" fill-opacity="0.24"/>
<rect x="418.462" y="-35.9883" width="81.3723" height="80.2262" fill="#0B9085"/>
<rect x="176.638" y="286.062" width="80.2262" height="81.3723" fill="#0D992F" fill-opacity="0.24"/>
<rect x="1145.08" y="690.633" width="80.2262" height="80.2262" fill="#1B8B3B" fill-opacity="0.26"/>
<rect x="1225.31" y="770.859" width="80.2262" height="80.2262" fill="#1B8B3B" fill-opacity="0.26"/>
</g>
</g>
</g>
<defs>
<linearGradient id="paint0_linear_763_81" x1="189.586" y1="-19.5406" x2="644.067" y2="222.513" gradientUnits="userSpaceOnUse">
<stop stop-color="white"/>
<stop offset="1" stop-color="white" stop-opacity="0"/>
</linearGradient>
<radialGradient id="paint1_radial_763_81" cx="0" cy="0" r="1" gradientUnits="userSpaceOnUse" gradientTransform="translate(154.915 941.111) rotate(-29.3932) scale(777.019 1335.47)">
<stop stop-color="white"/>
<stop offset="1" stop-color="white" stop-opacity="0"/>
</radialGradient>
<clipPath id="clip0_763_81">
<rect width="1440" height="1024" fill="white"/>
</clipPath>
</defs>
</svg>
